<?xml version="1.0" encoding="UTF-8"?>
<svg version="1.1" xmlns="http://www.w3.org/2000/svg" width="612" height="408">
<path d="M0 0 C1.03640625 0.49113281 2.0728125 0.98226562 3.140625 1.48828125 C4.04296875 1.94589844 4.9453125 2.40351562 5.875 2.875 C6.63554687 3.24367188 7.39609375 3.61234375 8.1796875 3.9921875 C14.46686959 10.92697632 12.22193734 24.84394013 12.125 33.625 C12.11494793 35.21744227 12.10582603 36.80989071 12.09765625 38.40234375 C12.07582408 42.26838365 12.04141784 46.13412236 12 50 C13.134375 50.12375 14.26875 50.2475 15.4375 50.375 C16.613125 50.58125 17.78875 50.7875 19 51 C20.1482685 53.296537 20.11561175 54.58313167 20.09765625 57.1328125 C20.09443359 57.93847656 20.09121094 58.74414062 20.08789062 59.57421875 C20.07951172 60.41597656 20.07113281 61.25773437 20.0625 62.125 C20.05798828 62.97449219 20.05347656 63.82398438 20.04882812 64.69921875 C20.03702874 66.79950909 20.01909306 68.8997633 20 71 C17.03 71 14.06 71 11 71 C10.99742187 71.69480469 10.99484375 72.38960938 10.9921875 73.10546875 C9.75487267 105.64684888 -8.91665166 132.26387488 -31.9375 153.75 C-43.60484638 163.8617002 -56.24196679 172.01825675 -70 179 C-70.85335937 179.44214844 -71.70671875 179.88429688 -72.5859375 180.33984375 C-79.72581683 182.29233502 -85.68516097 178.40660967 -91.6875 175 C-92.57163574 174.5045166 -93.45577148 174.0090332 -94.36669922 173.49853516 C-107.35807768 166.0888139 -118.57344321 156.70835562 -129 146 C-129.50660156 145.53851563 -130.01320312 145.07703125 -130.53515625 144.6015625 C-149.31133648 127.06572219 -161.55598663 97.75336264 -163.2421875 72.3515625 C-163.24853274 69.88326452 -163.19895512 67.45930631 -163 65 C-164.258125 64.855625 -165.51625 64.71125 -166.8125 64.5625 C-169.42667123 64.26251314 -171.47439892 63.84186703 -174 63 C-174 59.37 -174 55.74 -174 52 C-169.545 51.505 -169.545 51.505 -165 51 C-165.01160156 50.23300781 -165.02320313 49.46601563 -165.03515625 48.67578125 C-165.0962311 41.16357523 -164.91271358 33.69084262 -164.5625 26.1875 C-164.52326416 25.31714111 -164.48402832 24.44678223 -164.44360352 23.55004883 C-164.35971356 21.85534296 -164.2630683 20.16121381 -164.15283203 18.46801758 C-164.05085417 16.82122176 -163.98417006 15.17186573 -163.95263672 13.5222168 C-163.74860541 9.22828521 -163.57196507 7.57283697 -160.4375 4.43359375 C-159.303125 3.77488281 -158.16875 3.11617187 -157 2.4375 C-156.37625488 2.07164795 -155.75250977 1.7057959 -155.10986328 1.32885742 C-153.09489509 0.1735725 -151.05585713 -0.91934474 -149 -2 C-148.33838867 -2.35481445 -147.67677734 -2.70962891 -146.99511719 -3.07519531 C-100.55210367 -27.59873683 -45.52130133 -24.53092349 0 0 Z " fill="#EFF1F0" transform="translate(382,83)"/>
<path d="M0 0 C6.93 0 13.86 0 21 0 C21.185625 2.784375 21.37125 5.56875 21.5625 8.4375 C21.62381104 9.31591553 21.68512207 10.19433105 21.74829102 11.09936523 C21.87142264 13.06417779 21.93756604 15.03232325 22 17 C21 18 21 18 19.15234375 18.09765625 C17.1015625 18.06510417 15.05078125 18.03255208 13 18 C12.67 20.97 12.34 23.94 12 27 C11.34 27 10.68 27 10 27 C9.92523438 27.66902344 9.85046875 28.33804688 9.7734375 29.02734375 C5.2861274 61.80230474 -15.75222393 89.22534832 -41.375 109 C-46.67763158 113 -46.67763158 113 -49 113 C-49.495 114.485 -49.495 114.485 -50 116 C-53.57331341 117.7529462 -57.08846628 119.21769326 -61 120 C-61 120.66 -61 121.32 -61 122 C-64.96 122.99 -64.96 122.99 -69 124 C-69.495 125.98 -69.495 125.98 -70 128 C-76.62241448 129.73717131 -80.236513 127.96994634 -86.0625 124.6875 C-86.89523437 124.23181641 -87.72796875 123.77613281 -88.5859375 123.30664062 C-102.80678341 115.36612221 -114.50182732 105.49817268 -126 94 C-126.56203125 93.484375 -127.1240625 92.96875 -127.703125 92.4375 C-146.42100767 75.04310398 -158.56772487 45.57653182 -160.2421875 20.3515625 C-160.24849044 17.89972037 -160.14189801 15.44774069 -160 13 C-156.04 13 -152.08 13 -148 13 C-147.82984375 14.54429687 -147.6596875 16.08859375 -147.484375 17.6796875 C-147.24030711 19.74487733 -146.99547456 21.8099769 -146.75 23.875 C-146.64042969 24.88820312 -146.53085938 25.90140625 -146.41796875 26.9453125 C-145.57483485 33.86788558 -143.81010455 39.64342708 -141 46 C-140.42906199 47.53856172 -139.86551561 49.0799058 -139.3125 50.625 C-133.07712447 66.02009385 -123.73372126 78.3822628 -112 90 C-111.44957031 90.58523437 -110.89914062 91.17046875 -110.33203125 91.7734375 C-103.37659607 99.1043589 -94.89716378 104.17248242 -86.3125 109.375 C-85.59980957 109.81626221 -84.88711914 110.25752441 -84.15283203 110.7121582 C-79.68675972 113.3653475 -76.1936594 114.63242778 -71 115 C-71 114.34 -71 113.68 -71 113 C-69.99582031 112.46632813 -68.99164063 111.93265625 -67.95703125 111.3828125 C-58.62579249 106.33675952 -50.10513539 100.86702416 -42 94 C-41.45746582 93.54254395 -40.91493164 93.08508789 -40.35595703 92.61376953 C-26.722647 80.96406812 -10.91495809 64.07096533 -7 46 C-6.34 46 -5.68 46 -5 46 C-3.48057965 39.50612954 -2.32403052 33.03713572 -1.375 26.4375 C-1.2409375 25.52419922 -1.106875 24.61089844 -0.96875 23.66992188 C-0.64288324 21.44704506 -0.32101765 19.22358228 0 17 C4.29 17 8.58 17 13 17 C13 15.68 13 14.36 13 13 C6.565 12.505 6.565 12.505 0 12 C0 8.04 0 4.08 0 0 Z " fill="#162747" transform="translate(379,135)"/>
<path d="M0 0 C2.05029223 1.15151178 2.05029223 1.15151178 4.66113281 1.83984375 C8.10588643 3.1531751 9.72483255 4.10435921 12.00048828 7.04492188 C13.75367699 14.27612081 12.93054779 22.05590054 12.62548828 29.41992188 C12.57530832 31.51226438 12.52968429 33.60472144 12.48876953 35.69726562 C12.37875254 40.81598066 12.2063332 45.9292006 12.00048828 51.04492188 C8.37048828 51.04492188 4.74048828 51.04492188 1.00048828 51.04492188 C1.00048828 39.49492188 1.00048828 27.94492188 1.00048828 16.04492188 C-0.64951172 15.38492188 -2.29951172 14.72492188 -3.99951172 14.04492188 C-4.78326172 13.40554687 -5.56701172 12.76617187 -6.37451172 12.10742188 C-12.30238378 7.44980811 -20.20107932 5.48935866 -27.24951172 3.04492188 C-28.22275391 2.70203125 -29.19599609 2.35914062 -30.19873047 2.00585938 C-36.73237708 -0.26746786 -43.30245883 -2.22257253 -49.99951172 -3.95507812 C-49.99951172 -4.61507812 -49.99951172 -5.27507812 -49.99951172 -5.95507812 C-55.40312805 -6.03034278 -60.80642625 -6.08419508 -66.21044922 -6.11987305 C-68.04123258 -6.13477701 -69.87198145 -6.15510727 -71.70263672 -6.18139648 C-88.43890157 -6.41537387 -103.03768168 -4.27568814 -118.99951172 1.04492188 C-120.07587891 1.37621094 -121.15224609 1.7075 -122.26123047 2.04882812 C-127.83336512 3.79654563 -132.19696785 5.66131142 -136.99951172 9.04492188 C-139.00208978 9.86165959 -141.01228355 10.57113927 -143.06982422 11.23632812 C-145.61438522 12.3025713 -147.05137997 13.02584975 -148.99951172 15.04492188 C-149.42502875 18.02944045 -149.60438378 20.66078888 -149.60888672 23.65039062 C-149.62542297 24.48959549 -149.64195923 25.32880035 -149.65899658 26.19343567 C-149.70757195 28.87317146 -149.728868 31.55233944 -149.74951172 34.23242188 C-149.77766353 36.04950788 -149.80758985 37.86656733 -149.83935547 39.68359375 C-149.91333312 44.13732305 -149.96284915 48.59073539 -149.99951172 53.04492188 C-153.62951172 53.04492188 -157.25951172 53.04492188 -160.99951172 53.04492188 C-160.99951172 56.34492188 -160.99951172 59.64492187 -160.99951172 63.04492188 C-164.62951172 63.04492188 -168.25951172 63.04492188 -171.99951172 63.04492188 C-171.99951172 59.74492187 -171.99951172 56.44492188 -171.99951172 53.04492188 C-167.54451172 52.54992187 -167.54451172 52.54992187 -162.99951172 52.04492188 C-163.01111328 51.27792969 -163.02271484 50.5109375 -163.03466797 49.72070312 C-163.09574281 42.2084971 -162.9122253 34.7357645 -162.56201172 27.23242188 C-162.52277588 26.36206299 -162.48354004 25.4917041 -162.44311523 24.5949707 C-162.35922528 22.90026483 -162.26258002 21.20613569 -162.15234375 19.51293945 C-162.05036589 17.86614364 -161.98368178 16.2167876 -161.95214844 14.56713867 C-161.74811713 10.27320709 -161.57147679 8.61775885 -158.43701172 5.47851562 C-157.30263672 4.81980469 -156.16826172 4.16109375 -154.99951172 3.48242188 C-154.3757666 3.11656982 -153.75202148 2.75071777 -153.109375 2.3737793 C-151.09440681 1.21849437 -149.05536885 0.12557713 -146.99951172 -0.95507812 C-146.33790039 -1.30989258 -145.67628906 -1.66470703 -144.99462891 -2.03027344 C-101.04239553 -25.2385956 -43.19362815 -25.45699924 0 0 Z " fill="#12213B" transform="translate(379.99951171875,81.955078125)"/>
<path d="M0 0 C19.06026321 1.79813804 34.58510256 8.60627073 51 18 C51.05135686 24.54293403 51.08600428 31.08581477 51.10986328 37.62890625 C51.11982589 39.84767601 51.13340085 42.06643297 51.15087891 44.28515625 C51.31172776 65.2522771 50.87870882 85.92817098 41 105 C40.45730469 106.05703125 39.91460937 107.1140625 39.35546875 108.203125 C33.60436923 118.99830813 26.09964165 128.7756141 17 137 C16.01 137 15.02 137 14 137 C13.60167969 135.95199219 13.60167969 135.95199219 13.1953125 134.8828125 C12.84210938 133.97273437 12.48890625 133.06265625 12.125 132.125 C11.77695312 131.22007812 11.42890625 130.31515625 11.0703125 129.3828125 C10.11469105 126.87782993 10.11469105 126.87782993 8 125 C8.54151412 120.57660802 11.41272718 117.59485415 14.0625 114.1875 C24.6832965 100.14198191 33.35643276 83.75052619 35 66 C34.443125 66.515625 33.88625 67.03125 33.3125 67.5625 C31 69 31 69 28.4375 68.875 C25.83823784 67.94193153 24.62241904 67.22015237 23 65 C23 62 23 62 24.75 59.75 C27 58 27 58 28.9375 58 C31 59 31 59 36 63 C35.67 50.79 35.34 38.58 35 26 C23.70947835 20.35473918 12.11472627 17.30639239 0 14 C0 9.38 0 4.76 0 0 Z " fill="#64BB60" transform="translate(323,83)"/>
<path d="M0 0 C3 0.25 3 0.25 5 2.25 C5.34765625 4.66796875 5.34765625 4.66796875 5 7.25 C3.49609375 8.98828125 3.49609375 8.98828125 1.4375 10.5625 C-2.28805766 13.5812586 -5.37255296 16.78984913 -8.45703125 20.453125 C-10 22.25 -10 22.25 -11.703125 23.8515625 C-13.25027536 25.19206463 -13.25027536 25.19206463 -12.9375 27.375 C-10.97805825 33.38395471 -8.2913499 38.86415471 -5 44.25 C-4.54294678 45.4110022 -4.54294678 45.4110022 -4.07666016 46.59545898 C-3.02076983 49.1987913 -1.79371798 51.53678108 -0.3984375 53.97265625 C0.09140625 54.84083984 0.58125 55.70902344 1.0859375 56.60351562 C2.11556606 58.41581869 3.14945516 60.22570754 4.1875 62.03320312 C4.67476563 62.90009766 5.16203125 63.76699219 5.6640625 64.66015625 C6.11217285 65.44527588 6.5602832 66.23039551 7.02197266 67.03930664 C8 69.25 8 69.25 8 73.25 C2.72 73.25 -2.56 73.25 -8 73.25 C-10.34505819 68.55988363 -11.41583782 66.15696232 -12 61.25 C-12.90363281 61.29640625 -13.80726563 61.3428125 -14.73828125 61.390625 C-15.91777344 61.42671875 -17.09726562 61.4628125 -18.3125 61.5 C-19.48425781 61.54640625 -20.65601563 61.5928125 -21.86328125 61.640625 C-25 61.25 -25 61.25 -26.84375 59.36328125 C-27.41609375 58.31720703 -27.41609375 58.31720703 -28 57.25 C-28.5878125 56.2290625 -28.5878125 56.2290625 -29.1875 55.1875 C-30 53.25 -30 53.25 -30 50.25 C-26.37 50.25 -22.74 50.25 -19 50.25 C-19.99 47.28 -20.98 44.31 -22 41.25 C-22.66 41.25 -23.32 41.25 -24 41.25 C-24.28875 40.445625 -24.5775 39.64125 -24.875 38.8125 C-25.73262568 36.1173532 -25.73262568 36.1173532 -28 35.25 C-28.23783203 36.17619141 -28.23783203 36.17619141 -28.48046875 37.12109375 C-30.00327624 42.64863254 -31.93105584 47.34282504 -34.9140625 52.2421875 C-35.99904197 54.24822867 -36.55066095 56.02327538 -37 58.25 C-37.66 58.25 -38.32 58.25 -39 58.25 C-39.19335938 58.83007812 -39.38671875 59.41015625 -39.5859375 60.0078125 C-41.05729167 64.421875 -42.52864583 68.8359375 -44 73.25 C-49.28 73.25 -54.56 73.25 -60 73.25 C-59.22250306 69.36251529 -58.75072396 67.40223909 -56.9609375 64.1328125 C-56.3419458 62.98534546 -56.3419458 62.98534546 -55.71044922 61.81469727 C-55.26975098 61.00959717 -54.82905273 60.20449707 -54.375 59.375 C-51.08765159 53.24276251 -47.85420325 47.10122666 -44.875 40.8125 C-44.31554687 39.63816406 -43.75609375 38.46382812 -43.1796875 37.25390625 C-41.75630665 34.16734388 -41.75630665 34.16734388 -42 30.25 C-43.46918629 28.51548145 -43.46918629 28.51548145 -45.5 27 C-48.61540308 24.46152342 -51.34904997 21.83802371 -54.0625 18.875 C-57.56349201 15.28441567 -59.92646502 14.54844323 -65 14.25 C-66.9375 13.0625 -66.9375 13.0625 -68 11.25 C-68.1875 8.0625 -68.1875 8.0625 -68 5.25 C-66.02 4.92 -64.04 4.59 -62 4.25 C-62.495 4.683125 -62.99 5.11625 -63.5 5.5625 C-65.33218192 7.24740483 -65.33218192 7.24740483 -65 10.25 C-63.68 10.25 -62.36 10.25 -61 10.25 C-60.34 9.26 -59.68 8.27 -59 7.25 C-59 8.9 -59 10.55 -59 12.25 C-58.44441406 12.47558594 -57.88882812 12.70117188 -57.31640625 12.93359375 C-54.32184347 14.63539419 -52.31191994 16.82347758 -49.9375 19.3125 C-46.4829974 23.07954005 -46.4829974 23.07954005 -42 25.25 C-41.67 25.91 -41.34 26.57 -41 27.25 C-38.87423218 27.71651207 -38.87423218 27.71651207 -36.4375 27.875 C-35.61121094 27.94976562 -34.78492188 28.02453125 -33.93359375 28.1015625 C-33.29550781 28.15054688 -32.65742188 28.19953125 -32 28.25 C-33.9637662 22.9159864 -36.31404336 19.39726997 -40.5 15.5 C-41.22896484 14.79810547 -41.22896484 14.79810547 -41.97265625 14.08203125 C-43.90246781 12.22583648 -45.84330629 10.38943084 -47.84375 8.609375 C-49 7.25 -49 7.25 -49 4.25 C-45.50283507 5.6711883 -44.33382323 7.15661812 -42.375 10.3125 C-39.71170068 13.5754826 -37.69214322 14.5075893 -33.61328125 14.92578125 C-30.3673759 15.11535877 -27.13719639 15.12840073 -23.88671875 15.1171875 C-20 15.25 -20 15.25 -18 17.25 C-18 18.57 -18 19.89 -18 21.25 C-17.34 21.25 -16.68 21.25 -16 21.25 C-16 21.91 -16 22.57 -16 23.25 C-11.42534581 19.92297877 -6.88691233 16.17067743 -4 11.25 C-3.83965459 8.67213924 -4.12414282 6.63663323 -4.73046875 4.1328125 C-4.81941406 3.51148437 -4.90835938 2.89015625 -5 2.25 C-3 0.25 -3 0.25 0 0 Z " fill="#0E1B35" transform="translate(330,104.75)"/>
<path d="M0 0 C0.33 0 0.66 0 1 0 C1.77298951 5.45639655 2.13811416 10.71268522 2.09765625 16.21875 C2.0962413 16.96209595 2.09482635 17.70544189 2.09336853 18.47131348 C2.08783109 20.81425229 2.07529091 23.15709073 2.0625 25.5 C2.05747689 27.10156111 2.05291542 28.70312373 2.04882812 30.3046875 C2.03788227 34.20316288 2.02066196 38.1015645 2 42 C3.134375 42.12375 4.26875 42.2475 5.4375 42.375 C6.613125 42.58125 7.78875 42.7875 9 43 C10.1482685 45.296537 10.11561175 46.58313167 10.09765625 49.1328125 C10.09282227 50.34130859 10.09282227 50.34130859 10.08789062 51.57421875 C10.07532227 52.83685547 10.07532227 52.83685547 10.0625 54.125 C10.05798828 54.97449219 10.05347656 55.82398438 10.04882812 56.69921875 C10.03702874 58.79950909 10.01909306 60.8997633 10 63 C7.03 63 4.06 63 1 63 C0.99742187 63.69480469 0.99484375 64.38960938 0.9921875 65.10546875 C-0.24512733 97.64684888 -18.91665166 124.26387488 -41.9375 145.75 C-51.20666281 153.78327443 -61.07375453 160.71667489 -71.75 166.75 C-72.91208984 167.4140686 -72.91208984 167.4140686 -74.09765625 168.09155273 C-74.82339844 168.48930908 -75.54914063 168.88706543 -76.296875 169.296875 C-76.93979492 169.65104492 -77.58271484 170.00521484 -78.24511719 170.37011719 C-80 171 -80 171 -83 170 C-81.02579865 167.47740939 -80.03254358 167.0070192 -76.8125 166.3125 C-75.884375 166.209375 -74.95625 166.10625 -74 166 C-74 165.34 -74 164.68 -74 164 C-67.47085202 160.10762332 -67.47085202 160.10762332 -64.8125 159.5 C-62.16031139 158.76836176 -60.92037448 156.94136218 -59 155 C-57.64284245 153.91480203 -56.26699083 152.85264075 -54.875 151.8125 C-49.66373027 147.80383098 -44.80388163 143.48559671 -40 139 C-39.17371094 138.23945313 -38.34742188 137.47890625 -37.49609375 136.6953125 C-18.74750868 118.79760218 -8.93657829 95.87022845 -3 71 C-2.34 71 -1.68 71 -1 71 C-0.67 68.03 -0.34 65.06 0 62 C2.64 61.67 5.28 61.34 8 61 C8 55.39 8 49.78 8 44 C1.4 44 -5.2 44 -12 44 C-12 31.79 -12 19.58 -12 7 C-11.67 7 -11.34 7 -11 7 C-11 18.55 -11 30.1 -11 42 C-7.37 42 -3.74 42 0 42 C0 28.14 0 14.28 0 0 Z " fill="#D1D5D8" transform="translate(392,91)"/>
<path d="M0 0 C6.93 0 13.86 0 21 0 C21.185625 2.784375 21.37125 5.56875 21.5625 8.4375 C21.62381104 9.31591553 21.68512207 10.19433105 21.74829102 11.09936523 C21.87142264 13.06417779 21.93756604 15.03232325 22 17 C21 18 21 18 19.15234375 18.09765625 C17.1015625 18.06510417 15.05078125 18.03255208 13 18 C12.67 20.97 12.34 23.94 12 27 C11.67 27 11.34 27 11 27 C11 24.03 11 21.06 11 18 C7.7 18 4.4 18 1 18 C0.67 19.32 0.34 20.64 0 22 C0 20.35 0 18.7 0 17 C4.29 17 8.58 17 13 17 C13 15.68 13 14.36 13 13 C8.71 12.67 4.42 12.34 0 12 C0 8.04 0 4.08 0 0 Z " fill="#8198A3" transform="translate(379,135)"/>
<path d="M0 0 C0.66 0.33 1.32 0.66 2 1 C0.625 3 0.625 3 -1 5 C-1.66 5 -2.32 5 -3 5 C-3 18.53 -3 32.06 -3 46 C-0.03 46 2.94 46 6 46 C6 37.09 6 28.18 6 19 C6.33 19 6.66 19 7 19 C7 28.57 7 38.14 7 48 C3.37 48 -0.26 48 -4 48 C-4 51.3 -4 54.6 -4 58 C-7.63 58 -11.26 58 -15 58 C-15 54.7 -15 51.4 -15 48 C-10.545 47.505 -10.545 47.505 -6 47 C-6.01160156 46.23300781 -6.02320313 45.46601563 -6.03515625 44.67578125 C-6.0962311 37.16357523 -5.91271358 29.69084262 -5.5625 22.1875 C-5.52326416 21.31714111 -5.48402832 20.44678223 -5.44360352 19.55004883 C-5.23609348 15.35802745 -4.97112198 11.17253292 -4.59375 6.9921875 C-4.52994141 6.27272949 -4.46613281 5.55327148 -4.40039062 4.81201172 C-4 3 -4 3 -1.9375 0.9375 C-1.298125 0.628125 -0.65875 0.31875 0 0 Z " fill="#A4A8B7" transform="translate(223,87)"/>
<path d="M0 0 C0.78375 0.04125 1.5675 0.0825 2.375 0.125 C3.035 1.445 3.695 2.765 4.375 4.125 C4.98988281 4.09019531 5.60476563 4.05539063 6.23828125 4.01953125 C7.45064453 3.97892578 7.45064453 3.97892578 8.6875 3.9375 C9.88826172 3.88529297 9.88826172 3.88529297 11.11328125 3.83203125 C13.90245402 4.19332306 14.53723924 5.08132767 16.375 7.125 C17.365 7.455 18.355 7.785 19.375 8.125 C22.46920084 10.64266888 24.96567911 13.39801824 25.89959717 17.33834839 C26.06655674 19.83919442 26.05105741 22.27261111 25.9609375 24.77734375 C25.95244781 25.67747696 25.94395813 26.57761017 25.93521118 27.50502014 C25.90182529 30.35877021 25.82657781 33.20961521 25.75 36.0625 C25.71988108 38.00581835 25.69250865 39.94918132 25.66796875 41.89257812 C25.602083 46.6378252 25.49866758 51.38092141 25.375 56.125 C24.385 56.125 23.395 56.125 22.375 56.125 C22.39183838 54.9604126 22.40867676 53.7958252 22.42602539 52.59594727 C22.47698286 48.23995054 22.46819633 43.88570133 22.44213867 39.52954102 C22.43907245 37.65091766 22.45181789 35.77219488 22.48120117 33.89379883 C23.03927937 21.1336656 23.03927937 21.1336656 17.09375 10.40625 C12.93364074 6.97476705 9.7197023 6.02782359 4.375 6.125 C3.715 7.445 3.055 8.765 2.375 10.125 C0.395 10.125 -1.585 10.125 -3.625 10.125 C-5.00625018 7.36249964 -4.81579306 5.17768901 -4.625 2.125 C-2.625 0.125 -2.625 0.125 0 0 Z " fill="#4F6E80" transform="translate(274.625,185.875)"/>
<path d="M0 0 C0.78375 0.04125 1.5675 0.0825 2.375 0.125 C2.045 0.785 1.715 1.445 1.375 2.125 C0.385 2.125 -0.605 2.125 -1.625 2.125 C-1.625 3.775 -1.625 5.425 -1.625 7.125 C0.31574861 6.84882467 0.31574861 6.84882467 2.375 6.125 C3.035 5.135 3.695 4.145 4.375 3.125 C4.417721 4.79111905 4.41563832 6.45882885 4.375 8.125 C3.375 9.125 3.375 9.125 0.3125 9.1875 C-0.656875 9.166875 -1.62625 9.14625 -2.625 9.125 C-2.955 8.135 -3.285 7.145 -3.625 6.125 C-8.92490769 6.34132276 -12.19027315 7.47212847 -16.16918945 11.02978516 C-19.1689915 15.34712561 -18.35854627 20.6939882 -18.1875 25.75 C-17.84280539 37.17044792 -17.84280539 37.17044792 -19.98779297 39.78808594 C-21.65234375 40.8984375 -21.65234375 40.8984375 -24.625 42.125 C-24.625 40.805 -24.625 39.485 -24.625 38.125 C-23.635 37.63 -23.635 37.63 -22.625 37.125 C-22.65811279 36.05971069 -22.65811279 36.05971069 -22.69189453 34.97290039 C-23.16371092 13.49826478 -23.16371092 13.49826478 -19.578125 8.49609375 C-14.98657455 4.27325872 -10.82752789 2.25421933 -4.625 2.125 C-2.625 0.125 -2.625 0.125 0 0 Z " fill="#5C8987" transform="translate(329.625,185.875)"/>
<path d="M0 0 C0 0.66 0 1.32 0 2 C-3.02054465 1.40773634 -4.90314189 0.52258515 -7.3125 -1.375 C-10.68185438 -3.88225944 -14.10668326 -5.40095919 -18 -7 C-19.19712515 -7.67059964 -20.38474537 -8.3584357 -21.5625 -9.0625 C-24.74015459 -10.85354168 -27.54143843 -11.90286027 -31 -13 C-32.95859759 -13.64503147 -34.91692978 -14.29086938 -36.875 -14.9375 C-37.84179688 -15.25589844 -38.80859375 -15.57429688 -39.8046875 -15.90234375 C-42.11217877 -16.69501496 -44.39589192 -17.55809615 -46.66137695 -18.46386719 C-50.92466332 -20.06016578 -55.12239279 -20.9785979 -59.61328125 -21.67578125 C-60.83353752 -21.86591545 -60.83353752 -21.86591545 -62.07844543 -22.05989075 C-72.094659 -23.47669351 -82.09562149 -23.32692208 -92.1875 -23.1875 C-94.12433833 -23.17239763 -96.06118831 -23.15871923 -97.99804688 -23.14648438 C-102.66566136 -23.11398347 -107.33269512 -23.06252143 -112 -23 C-112 -23.33 -112 -23.66 -112 -24 C-76.38111195 -32.63044926 -29.15013465 -22.00274587 0 0 Z " fill="#B3B7BE" transform="translate(392,89)"/>
<path d="M0 0 C5.94 0 11.88 0 18 0 C18 2.97 18 5.94 18 9 C12.06 9 6.12 9 0 9 C0 6.03 0 3.06 0 0 Z " fill="#093F54" transform="translate(381,136)"/>
<path d="M0 0 C4.75 0.75 4.75 0.75 7 3 C7.125 5.625 7.125 5.625 7 8 C6.38125 8.2475 5.7625 8.495 5.125 8.75 C2.54189715 10.26947227 2.26452613 11.32217995 1 14 C-3.36645963 19.63043478 -3.36645963 19.63043478 -6.25 21.3125 C-9.19676921 24.15402745 -8.83500495 28.06486811 -9 32 C-9.99 32 -10.98 32 -12 32 C-12.50063073 28.5442573 -12.67196799 25.44007495 -12 22 C-10.17309897 19.73931425 -8.28858688 18.18181874 -5.9453125 16.47265625 C-3.74644687 14.97564227 -3.74644687 14.97564227 -2 12 C-2.2887823 9.97852391 -2.57958034 7.95710656 -2.90625 5.94140625 C-3 4 -3 4 -1.5625 1.5 C-1.046875 1.005 -0.53125 0.51 0 0 Z " fill="#407178" transform="translate(319,209)"/>
<path d="M0 0 C2.5 0.25 2.5 0.25 4.5 2.25 C4.75 5.25 4.75 5.25 4.5 8.25 C3.84 8.91 3.18 9.57 2.5 10.25 C1.83646906 14.91567021 1.39010877 20.04259552 3.55078125 24.33984375 C5.30114341 26.45163762 7.04074764 28.02037382 9.5 29.25 C9.5 30.24 9.5 31.23 9.5 32.25 C4.88060107 30.09835944 1.25168913 27.61776052 -1.5 23.25 C-2.13357289 19.79414789 -2.31183075 16.5538152 -2.33203125 13.04296875 C-2.19854984 10.10919489 -2.19854984 10.10919489 -4.5 8.25 C-4.75 5.25 -4.75 5.25 -4.5 2.25 C-2.5 0.25 -2.5 0.25 0 0 Z " fill="#5C937D" transform="translate(290.5,83.75)"/>
<path d="M0 0 C3.0625 0.125 3.0625 0.125 5.0625 1.125 C5.1875 4 5.1875 4 5.0625 7.125 C3.0625 9.125 3.0625 9.125 -0.5625 9.25 C-6.41445763 9.8320211 -9.17512752 14.00216069 -12.9375 18.125 C-14.2075293 19.31518463 -15.4977245 20.48443906 -16.8125 21.625 C-17.64394531 22.35203125 -17.64394531 22.35203125 -18.4921875 23.09375 C-19.9375 24.125 -19.9375 24.125 -21.9375 24.125 C-22.2675 25.775 -22.5975 27.425 -22.9375 29.125 C-24.4375 27.8125 -24.4375 27.8125 -25.9375 26.125 C-25.9375 25.135 -25.9375 24.145 -25.9375 23.125 C-25.1125 22.795 -24.2875 22.465 -23.4375 22.125 C-19.54379719 20.19651512 -16.88300517 17.23173142 -13.8984375 14.1328125 C-11.38235756 11.55658722 -8.80183129 9.30734765 -5.9375 7.125 C-5.2775 7.125 -4.6175 7.125 -3.9375 7.125 C-3.958125 6.155625 -3.97875 5.18625 -4 4.1875 C-3.91794329 0.16672099 -3.91794329 0.16672099 0 0 Z " fill="#63A37B" transform="translate(345.9375,116.875)"/>
<path d="M0 0 C1.32 0.66 2.64 1.32 4 2 C4 3.32 4 4.64 4 6 C4.66 6 5.32 6 6 6 C9 11.625 9 11.625 9 15 C5.37 15 1.74 15 -2 15 C-1.34 16.98 -0.68 18.96 0 21 C-3 19 -3 19 -4 16 C-4.66 15.67 -5.32 15.34 -6 15 C-4 10 -2 5 0 0 Z " fill="#CFD2D6" transform="translate(302,140)"/>
<path d="M0 0 C3 0.25 3 0.25 5 2.25 C5.34765625 4.66796875 5.34765625 4.66796875 5 7.25 C3.49609375 8.98828125 3.49609375 8.98828125 1.4375 10.5625 C-2.26548491 13.56545066 -5.31184215 16.75323822 -8.390625 20.3828125 C-10.47804195 22.80462149 -12.70561356 25.02514043 -15 27.25 C-15 26.59 -15 25.93 -15 25.25 C-15.66 25.25 -16.32 25.25 -17 25.25 C-16.67 23.93 -16.34 22.61 -16 21.25 C-16 21.91 -16 22.57 -16 23.25 C-11.42534581 19.92297877 -6.88691233 16.17067743 -4 11.25 C-3.83965459 8.67213924 -4.12414282 6.63663323 -4.73046875 4.1328125 C-4.81941406 3.51148437 -4.90835937 2.89015625 -5 2.25 C-3 0.25 -3 0.25 0 0 Z " fill="#6CA585" transform="translate(330,104.75)"/>
<path d="M0 0 C0 3 0 3 -1.3203125 4.578125 C-1.91585937 5.12984375 -2.51140625 5.6815625 -3.125 6.25 C-5.54994232 8.5132795 -7.71578634 10.84510785 -9.8203125 13.40234375 C-12.80310804 16.91222711 -16.01607419 19.63500198 -19.75 22.3125 C-20.69987793 23.00037598 -20.69987793 23.00037598 -21.66894531 23.70214844 C-26.8499173 27.36417073 -32.22889647 30.6286246 -37.75 33.75 C-38.5244043 34.19255127 -39.29880859 34.63510254 -40.09667969 35.09106445 C-41.18577637 35.68794067 -41.18577637 35.68794067 -42.296875 36.296875 C-43.26125488 36.82812988 -43.26125488 36.82812988 -44.24511719 37.37011719 C-46 38 -46 38 -49 37 C-47.02579865 34.47740939 -46.03254358 34.0070192 -42.8125 33.3125 C-41.4203125 33.1578125 -41.4203125 33.1578125 -40 33 C-40 32.34 -40 31.68 -40 31 C-33.47085202 27.10762332 -33.47085202 27.10762332 -30.8125 26.5 C-28.16031139 25.76836176 -26.92037448 23.94136218 -25 22 C-23.64284245 20.91480203 -22.26699083 19.85264075 -20.875 18.8125 C-13.42284939 13.09140909 -6.55261372 6.72505092 0 0 Z " fill="#ACB3BD" transform="translate(358,224)"/>
<path d="M0 0 C-0.99 0.66 -1.98 1.32 -3 2 C-3 2.99 -3 3.98 -3 5 C-1.68 5 -0.36 5 1 5 C1.66 4.01 2.32 3.02 3 2 C3 3.65 3 5.3 3 7 C3.55558594 7.22558594 4.11117188 7.45117188 4.68359375 7.68359375 C7.67815653 9.38539419 9.68808006 11.57347758 12.0625 14.0625 C15.5170026 17.82954005 15.5170026 17.82954005 20 20 C20.33 20.66 20.66 21.32 21 22 C23.12576782 22.46651207 23.12576782 22.46651207 25.5625 22.625 C26.38878906 22.69976562 27.21507812 22.77453125 28.06640625 22.8515625 C28.70449219 22.90054688 29.34257812 22.94953125 30 23 C30.33 22.34 30.66 21.68 31 21 C31 21.99 31 22.98 31 24 C28.03 24.33 25.06 24.66 22 25 C21.67 25.99 21.34 26.98 21 28 C20.67 27.01 20.34 26.02 20 25 C18.40933714 23.38755614 18.40933714 23.38755614 16.4375 21.8125 C13.37071289 19.2440658 10.64355149 16.56888805 7.9375 13.625 C4.43650799 10.03441567 2.07353498 9.29844323 -3 9 C-4.9375 7.8125 -4.9375 7.8125 -6 6 C-6.1875 2.8125 -6.1875 2.8125 -6 0 C-3 -1 -3 -1 0 0 Z " fill="#588582" transform="translate(268,110)"/>
<path d="M0 0 C2.375 0.75 2.375 0.75 3.375 1.75 C3.5625 4.6875 3.5625 4.6875 3.375 7.75 C2.715 8.41 2.055 9.07 1.375 9.75 C1.00547951 11.87860662 1.00547951 11.87860662 0.9609375 14.3203125 C0.92226563 15.21621094 0.88359375 16.11210938 0.84375 17.03515625 C0.8128125 17.97230469 0.781875 18.90945312 0.75 19.875 C0.71132813 20.81988281 0.67265625 21.76476562 0.6328125 22.73828125 C0.53838654 25.07532375 0.45281606 27.41235501 0.375 29.75 C-0.285 29.75 -0.945 29.75 -1.625 29.75 C-1.625 22.82 -1.625 15.89 -1.625 8.75 C-2.945 8.42 -4.265 8.09 -5.625 7.75 C-5.85232116 4.94637237 -5.96581872 3.28813483 -4.4375 0.875 C-2.625 -0.25 -2.625 -0.25 0 0 Z " fill="#8BBB9E" transform="translate(311.625,86.25)"/>
<path d="M0 0 C0.66 0.33 1.32 0.66 2 1 C0.625 3 0.625 3 -1 5 C-1.66 5 -2.32 5 -3 5 C-3 18.53 -3 32.06 -3 46 C-0.03 46 2.94 46 6 46 C6 37.09 6 28.18 6 19 C6.33 19 6.66 19 7 19 C7 28.24 7 37.48 7 47 C3.37 47 -0.26 47 -4 47 C-4.09877896 40.78870302 -4.17142631 34.57786182 -4.21972656 28.3659668 C-4.23985847 26.25227903 -4.26716643 24.13864706 -4.30175781 22.02514648 C-4.35020627 18.98928065 -4.37295276 15.95415022 -4.390625 12.91796875 C-4.42159271 11.4975251 -4.42159271 11.4975251 -4.45318604 10.04838562 C-4.45544041 3.4769162 -4.45544041 3.4769162 -1.97558594 0.88012695 C-1.32364258 0.58968506 -0.67169922 0.29924316 0 0 Z " fill="#3E4864" transform="translate(223,87)"/>
<path d="M0 0 C2.4375 0.8125 2.4375 0.8125 4.4375 2.8125 C4.80237512 5.65852594 4.83949375 7.1989306 3.25 9.625 C0.80405047 11.22751866 -0.69631787 11.2534511 -3.5625 10.8125 C-5.71752531 7.57996204 -6.03106135 6.56099077 -5.5625 2.8125 C-3.86282344 0.12880016 -3.19877434 -0.23405666 0 0 Z " fill="#66968F" transform="translate(311.5625,178.1875)"/>
<path d="M0 0 C3.78520613 0.54074373 5.59177555 2.07572746 8 5 C8 5.99 8 6.98 8 8 C5.5 10.1875 5.5 10.1875 3 12 C0.11562221 10.70700306 -1.87219421 9.34058637 -4 7 C-2.79618552 4.50638429 -1.54571278 2.31856917 0 0 Z " fill="#445774" transform="translate(256,140)"/>
<path d="M0 0 C2.25664055 1.09192285 3.52058591 1.84941607 4.9375 3.9375 C4.69296876 7.27942692 4.33206443 8.54293557 1.9375 10.9375 C-0.9007362 10.71917414 -2.59672087 10.29084968 -4.875 8.5625 C-6.0625 6.9375 -6.0625 6.9375 -6.0625 3.9375 C-2.93092105 -0.08881579 -2.93092105 -0.08881579 0 0 Z " fill="#7AA797" transform="translate(352.0625,141.0625)"/>
<path d="M0 0 C3.3 0 6.6 0 10 0 C10 2.64 10 5.28 10 8 C6.7 8 3.4 8 0 8 C0 5.36 0 2.72 0 0 Z " fill="#1B284B" transform="translate(209,136)"/>
<path d="M0 0 C0.78375 0.04125 1.5675 0.0825 2.375 0.125 C2.705 0.785 3.035 1.445 3.375 2.125 C2.70833333 4.125 2.04166667 6.125 1.375 8.125 C1.705 8.785 2.035 9.445 2.375 10.125 C0.395 10.125 -1.585 10.125 -3.625 10.125 C-5.00625018 7.36249964 -4.81579306 5.17768901 -4.625 2.125 C-2.625 0.125 -2.625 0.125 0 0 Z " fill="#587686" transform="translate(274.625,185.875)"/>
<path d="M0 0 C-1.69363257 4.265445 -4.77377828 7.2202907 -7.875 10.5 C-8.40480469 11.06847656 -8.93460937 11.63695312 -9.48046875 12.22265625 C-12.26754475 15.20337524 -15.09307965 18.13520893 -18 21 C-18.66 20.67 -19.32 20.34 -20 20 C-19.18595703 19.22076172 -19.18595703 19.22076172 -18.35546875 18.42578125 C-14.64535882 14.80925968 -11.51972352 11.5594997 -9 7 C-3.70731707 0 -3.70731707 0 0 0 Z " fill="#E0E2E6" transform="translate(370,214)"/>
<path d="M0 0 C0.33 0 0.66 0 1 0 C2.10582558 8.07252674 1.97097539 15.93640293 1.625 24.0625 C1.58117187 25.27744141 1.53734375 26.49238281 1.4921875 27.74414062 C0.98222227 40.81199972 0.98222227 40.81199972 0 47 C-0.99 47.495 -0.99 47.495 -2 48 C-1.67 44.7 -1.34 41.4 -1 38 C-1.66 37.67 -2.32 37.34 -3 37 C-2.67 36.34 -2.34 35.68 -2 35 C-1.34 35 -0.68 35 0 35 C0 23.45 0 11.9 0 0 Z " fill="#97DE70" transform="translate(359,111)"/>
<path d="M0 0 C0.625 2.375 0.625 2.375 1 5 C0.34 5.66 -0.32 6.32 -1 7 C-1.30059943 9.36509361 -1.49515012 11.74441881 -1.625 14.125 C-1.73714844 16.04699219 -1.73714844 16.04699219 -1.8515625 18.0078125 C-1.90054687 18.99523437 -1.94953125 19.98265625 -2 21 C-2.33 21 -2.66 21 -3 21 C-3.04898437 20.08476563 -3.09796875 19.16953125 -3.1484375 18.2265625 C-3.22320312 17.03804687 -3.29796875 15.84953125 -3.375 14.625 C-3.44460938 13.44164063 -3.51421875 12.25828125 -3.5859375 11.0390625 C-3.70217346 7.89437681 -3.70217346 7.89437681 -6 6 C-6.125 2.875 -6.125 2.875 -6 0 C-3 -1 -3 -1 0 0 Z " fill="#8FB9A3" transform="translate(292,86)"/>
<path d="M0 0 C2.125 0.375 2.125 0.375 4 1 C3.01 1 2.02 1 1 1 C1 1.66 1 2.32 1 3 C2.32 3.33 3.64 3.66 5 4 C5 5.32 5 6.64 5 8 C3.68 8 2.36 8 1 8 C0.67 9.32 0.34 10.64 0 12 C-1.5625 10.375 -1.5625 10.375 -3 8 C-2.77962372 4.32706204 -2.63033454 2.63033454 0 0 Z " fill="#709797" transform="translate(319,209)"/>
<path d="M0 0 C0.99 0 1.98 0 3 0 C3 5.94 3 11.88 3 18 C2.01 18 1.02 18 0 18 C0 12.06 0 6.12 0 0 Z " fill="#537A81" transform="translate(297,175)"/>
<path d="M0 0 C-10.25390625 5.859375 -10.25390625 5.859375 -12.12158203 6.91601562 C-13.40056346 7.65408133 -14.6669809 8.414257 -15.92138672 9.19335938 C-17.57156378 10.20230742 -19.28311008 11.10929832 -21 12 C-21.99 11.67 -22.98 11.34 -24 11 C-22.02579865 8.47740939 -21.03254358 8.0070192 -17.8125 7.3125 C-16.884375 7.209375 -15.95625 7.10625 -15 7 C-15 6.34 -15 5.68 -15 5 C-4.14893617 -1.38297872 -4.14893617 -1.38297872 0 0 Z " fill="#B7BDC6" transform="translate(333,250)"/>
<path d="M0 0 C0.66 0 1.32 0 2 0 C0.6201102 4.23716162 -1.29533013 6.62329456 -4.5 9.6875 C-5.2940625 10.45449219 -6.088125 11.22148438 -6.90625 12.01171875 C-7.5971875 12.66785156 -8.288125 13.32398438 -9 14 C-9.66 14.66 -10.32 15.32 -11 16 C-11 15.34 -11 14.68 -11 14 C-11.66 14 -12.32 14 -13 14 C-12.67 12.68 -12.34 11.36 -12 10 C-12 10.66 -12 11.32 -12 12 C-7.86790985 8.99484352 -4.77552155 5.52768472 -1.55078125 1.609375 C-1.03902344 1.07828125 -0.52726562 0.5471875 0 0 Z " fill="#4E7574" transform="translate(326,116)"/>
<path d="M0 0 C0.78375 0.04125 1.5675 0.0825 2.375 0.125 C2.045 0.785 1.715 1.445 1.375 2.125 C0.385 2.125 -0.605 2.125 -1.625 2.125 C-1.625 3.775 -1.625 5.425 -1.625 7.125 C0.31574861 6.84882467 0.31574861 6.84882467 2.375 6.125 C3.035 5.135 3.695 4.145 4.375 3.125 C4.417721 4.79111905 4.41563832 6.45882885 4.375 8.125 C3.375 9.125 3.375 9.125 0.3125 9.1875 C-0.656875 9.166875 -1.62625 9.14625 -2.625 9.125 C-2.955 7.475 -3.285 5.825 -3.625 4.125 C-7.68106165 4.59300711 -11.09088679 5.00453208 -14.625 7.125 C-13.5625 5.1875 -13.5625 5.1875 -11.625 3.125 C-9.30343403 2.71770772 -6.9681213 2.38061323 -4.625 2.125 C-2.625 0.125 -2.625 0.125 0 0 Z " fill="#578B83" transform="translate(329.625,185.875)"/>
<path d="M0 0 C5.75 -0.125 5.75 -0.125 8 1 C8.1875 3.875 8.1875 3.875 8 7 C7.01 7.66 6.02 8.32 5 9 C5 8.34 5 7.68 5 7 C3.68 6.67 2.36 6.34 1 6 C0.67 4.02 0.34 2.04 0 0 Z " fill="#9AC8A4" transform="translate(343,117)"/>
<path d="M0 0 C0.99 0 1.98 0 3 0 C3 5.28 3 10.56 3 16 C2.01 16 1.02 16 0 16 C0 10.72 0 5.44 0 0 Z " fill="#6EA189" transform="translate(317,103)"/>
<path d="M0 0 C2.625 0.25 2.625 0.25 4.4375 1.375 C6.11606106 4.02535957 5.82950238 6.18246424 5.625 9.25 C4.965 8.59 4.305 7.93 3.625 7.25 C1.02219432 7.57041397 1.02219432 7.57041397 -1.375 8.25 C-2.5 4.5 -2.5 4.5 -1.375 2.25 C-2.035 1.92 -2.695 1.59 -3.375 1.25 C-2.375 0.25 -2.375 0.25 0 0 Z " fill="#79A49B" transform="translate(266.375,107.75)"/>
<path d="M0 0 C1.65 0 3.3 0 5 0 C4.67 7.26 4.34 14.52 4 22 C3.34 22 2.68 22 2 22 C2 15.07 2 8.14 2 1 C1.34 0.67 0.68 0.34 0 0 Z " fill="#4D906C" transform="translate(308,94)"/>
<path d="M0 0 C0.66 1.32 1.32 2.64 2 4 C1.0980639 5.48819457 0.17785871 6.96532813 -0.75 8.4375 C-1.51570313 9.67306641 -1.51570313 9.67306641 -2.296875 10.93359375 C-4.1792182 13.21744593 -5.1157546 13.65514457 -8 14 C-6.6744419 10.37723685 -5.05653045 7.36494652 -2.875 4.1875 C-2.33617187 3.39730469 -1.79734375 2.60710937 -1.2421875 1.79296875 C-0.83226562 1.20128906 -0.42234375 0.60960937 0 0 Z " fill="#CBCFD4" transform="translate(375,201)"/>
<path d="M0 0 C3.38957108 1.43347499 5.2780678 3.18781692 7.625 6 C9.3733168 8.07660336 11.07962765 10.07962765 13 12 C12.34 12.66 11.68 13.32 11 14 C8.33333333 11.33333333 5.66666667 8.66666667 3 6 C2.41863281 5.48050781 1.83726562 4.96101563 1.23828125 4.42578125 C0 3 0 3 0 0 Z " fill="#5A877F" transform="translate(281,109)"/>
<path d="M0 0 C0.04241723 2.33294775 0.04092937 4.66702567 0 7 C-1 8 -1 8 -4.0625 8.0625 C-5.031875 8.041875 -6.00125 8.02125 -7 8 C-7 7.67 -7 7.34 -7 7 C-5.35 6.67 -3.7 6.34 -2 6 C-2.33 5.67 -2.66 5.34 -3 5 C-4.32 5 -5.64 5 -7 5 C-7 3.35 -7 1.7 -7 0 C-3.86650268 -1.04449911 -3.01031744 -0.93423645 0 0 Z " fill="#B2CBC6" transform="translate(335,188)"/>
<path d="M0 0 C0.33 0 0.66 0 1 0 C1.14486019 4.27047833 1.23392616 8.54032833 1.3125 12.8125 C1.35439453 14.02744141 1.39628906 15.24238281 1.43945312 16.49414062 C1.45556641 17.65751953 1.47167969 18.82089844 1.48828125 20.01953125 C1.51446533 21.09307861 1.54064941 22.16662598 1.56762695 23.27270508 C1 26 1 26 -1.53051758 27.8737793 C-2.34544678 28.24543213 -3.16037598 28.61708496 -4 29 C-4 27.68 -4 26.36 -4 25 C-3.01 24.34 -2.02 23.68 -1 23 C-0.49095616 20.5842887 -0.49095616 20.5842887 -0.48828125 17.7734375 C-0.45283203 16.7421875 -0.41738281 15.7109375 -0.38085938 14.6484375 C-0.35830078 13.56820312 -0.33574219 12.48796875 -0.3125 11.375 C-0.27833984 10.28703125 -0.24417969 9.1990625 -0.20898438 8.078125 C-0.12631666 5.38551937 -0.05722913 2.69324709 0 0 Z " fill="#33676A" transform="translate(309,199)"/>
<path d="M0 0 C0.66 0 1.32 0 2 0 C0.55922954 3.36179774 -1.24750021 5.59156268 -4 8 C-4.66 8 -5.32 8 -6 8 C-6.33 9.65 -6.66 11.3 -7 13 C-8.5 11.6875 -8.5 11.6875 -10 10 C-10 9.01 -10 8.02 -10 7 C-9.0925 6.5875 -8.185 6.175 -7.25 5.75 C-4.19047606 4.10256403 -2.38114082 2.46618157 0 0 Z " fill="#6A938F" transform="translate(330,133)"/>
<path d="M0 0 C4.4787987 0.43695597 7.37512398 1.72942906 11.1875 4.078125 C14.07699591 5.5477824 16.78987343 5.73794885 20 6 C19.34 6.66 18.68 7.32 18 8 C11.08275038 8 5.82034785 4.44168851 0 1 C0 0.67 0 0.34 0 0 Z " fill="#B5BAC4" transform="translate(289,256)"/>
<path d="M0 0 C1.32 0.66 2.64 1.32 4 2 C1.03 4.475 1.03 4.475 -2 7 C-3.32 6.34 -4.64 5.68 -6 5 C-5.67 3.68 -5.34 2.36 -5 1 C-4.67 1.66 -4.34 2.32 -4 3 C-2.68 2.01 -1.36 1.02 0 0 Z " fill="#C3D2D3" transform="translate(310,224)"/>
<path d="M0 0 C-0.99 0.66 -1.98 1.32 -3 2 C-3 2.99 -3 3.98 -3 5 C-1.68 5 -0.36 5 1 5 C1.66 4.01 2.32 3.02 3 2 C3 3.65 3 5.3 3 7 C-0.375 7.625 -0.375 7.625 -4 8 C-6 6 -6 6 -6.125 2.875 C-6.08375 1.92625 -6.0425 0.9775 -6 0 C-3 -1 -3 -1 0 0 Z " fill="#40776F" transform="translate(268,110)"/>
<path d="M0 0 C2.97 0.33 5.94 0.66 9 1 C9 1.33 9 1.66 9 2 C6.69 2 4.38 2 2 2 C2 5.96 2 9.92 2 14 C1.34 14 0.68 14 0 14 C0 9.38 0 4.76 0 0 Z " fill="#8CCC85" transform="translate(323,83)"/>
<path d="M0 0 C0 0.66 0 1.32 0 2 C-6.50422293 4.00865708 -12.1781317 5.38614349 -19 5 C-15.90131855 2.93421237 -13.65023694 2.25308642 -10.0625 1.375 C-9.02222656 1.11460938 -7.98195313 0.85421875 -6.91015625 0.5859375 C-4 0 -4 0 0 0 Z " fill="#788091" transform="translate(278,66)"/>
<path d="M0 0 C2.5625 0.1875 2.5625 0.1875 4.5625 2.1875 C4.6875 5.3125 4.6875 5.3125 4.5625 8.1875 C3.5725 8.6825 3.5725 8.6825 2.5625 9.1875 C0.4375 8.25 0.4375 8.25 -1.4375 7.1875 C-0.1175 7.1875 1.2025 7.1875 2.5625 7.1875 C1.81099977 3.90976496 1.81099977 3.90976496 -1.4375 2.1875 C-2.0975 1.8575 -2.7575 1.5275 -3.4375 1.1875 C-2.4375 0.1875 -2.4375 0.1875 0 0 Z " fill="#71A98B" transform="translate(290.4375,83.8125)"/>
<path d="M0 0 C0.66 0 1.32 0 2 0 C2.33 0.66 2.66 1.32 3 2 C5.12576782 2.46651207 5.12576782 2.46651207 7.5625 2.625 C8.38878906 2.69976562 9.21507812 2.77453125 10.06640625 2.8515625 C10.70449219 2.90054688 11.34257812 2.94953125 12 3 C12.33 2.34 12.66 1.68 13 1 C13 1.99 13 2.98 13 4 C8.545 4.495 8.545 4.495 4 5 C3.67 5.99 3.34 6.98 3 8 C2.67 7.01 2.34 6.02 2 5 C0.50014391 3.33289654 0.50014391 3.33289654 -1 2 C-0.67 1.34 -0.34 0.68 0 0 Z " fill="#778C94" transform="translate(286,130)"/>
<path d="M0 0 C1.38476869 3.84657971 0.83061477 7.05457983 0 11 C-1.4375 13.9375 -1.4375 13.9375 -3 16 C-3.66 16 -4.32 16 -5 16 C-3.41078475 10.63904723 -1.81027062 5.29156027 0 0 Z " fill="#9FA6AE" transform="translate(386,174)"/>
<path d="M0 0 C0.33 0 0.66 0 1 0 C1.12058347 6.41772028 1.00784529 12.65057468 0 19 C-0.66 19.33 -1.32 19.66 -2 20 C-1.67 16.7 -1.34 13.4 -1 10 C-1.66 9.67 -2.32 9.34 -3 9 C-2.67 8.34 -2.34 7.68 -2 7 C-1.34 7 -0.68 7 0 7 C0 4.69 0 2.38 0 0 Z " fill="#86C986" transform="translate(359,139)"/>
<path d="M0 0 C0.99 0.33 1.98 0.66 3 1 C0.36 3.64 -2.28 6.28 -5 9 C-5.66 8.01 -6.32 7.02 -7 6 C-5.90716423 4.96704564 -4.80029421 3.94892165 -3.6875 2.9375 C-3.07261719 2.36902344 -2.45773437 1.80054687 -1.82421875 1.21484375 C-0.92123047 0.61349609 -0.92123047 0.61349609 0 0 Z " fill="#629985" transform="translate(338,126)"/>
<path d="M0 0 C0.99 0 1.98 0 3 0 C3.66 0.99 4.32 1.98 5 3 C6.32 3 7.64 3 9 3 C8.34 4.32 7.68 5.64 7 7 C4.13302508 5.71480435 2.02392288 4.42870746 0 2 C0 1.34 0 0.68 0 0 Z " fill="#324663" transform="translate(252,145)"/>
<path d="M0 0 C1.32 0.33 2.64 0.66 4 1 C4.125 3.375 4.125 3.375 4 6 C2 8 2 8 -0.625 8.125 C-1.40875 8.08375 -2.1925 8.0425 -3 8 C-3 7.34 -3 6.68 -3 6 C-1.68 5.67 -0.36 5.34 1 5 C0.67 3.35 0.34 1.7 0 0 Z " fill="#599C77" transform="translate(331,106)"/>
<path d="M0 0 C-1.6188996 1.03048037 -3.24532489 2.04914678 -4.875 3.0625 C-5.77992188 3.63097656 -6.68484375 4.19945312 -7.6171875 4.78515625 C-8.40351563 5.18605469 -9.18984375 5.58695313 -10 6 C-10.66 5.67 -11.32 5.34 -12 5 C-8.44416617 1.04907352 -5.38741645 -1.79580548 0 0 Z " fill="#C7CBD3" transform="translate(333,250)"/>
<path d="M0 0 C4.83256305 0.41421969 6.82679218 2.46413986 10 6 C6.62972148 6 5.93297304 5.50175992 3.3125 3.5625 C2.68988281 3.11003906 2.06726563 2.65757812 1.42578125 2.19140625 C0.95527344 1.79824219 0.48476563 1.40507812 0 1 C0 0.67 0 0.34 0 0 Z " fill="#9098A8" transform="translate(272,245)"/>
<path d="M0 0 C0.33 0 0.66 0 1 0 C0.48594831 4.96916636 -0.23384882 9.29026351 -2 14 C-2.33 14 -2.66 14 -3 14 C-2.88512252 12.41590006 -2.75765492 10.83271037 -2.625 9.25 C-2.55539062 8.36828125 -2.48578125 7.4865625 -2.4140625 6.578125 C-2.00149945 4.00933618 -1.28839043 2.24158985 0 0 Z " fill="#F6F6F6" transform="translate(389,170)"/>
<path d="M0 0 C1.32 0.66 2.64 1.32 4 2 C3.34 3.32 2.68 4.64 2 6 C0.68 5.34 -0.64 4.68 -2 4 C-1.34 2.68 -0.68 1.36 0 0 Z " fill="#BEC5CC" transform="translate(257,143)"/>
<path d="M0 0 C-1.26941497 3.91402949 -2.51167694 5.79072873 -6 8 C-6.66 7.34 -7.32 6.68 -8 6 C-7.0479279 4.99403703 -6.08812654 3.99538437 -5.125 3 C-4.59132813 2.443125 -4.05765625 1.88625 -3.5078125 1.3125 C-2 0 -2 0 0 0 Z " fill="#58917E" transform="translate(328,116)"/>
<path d="M0 0 C4.2742558 1.5830577 6.26531794 4.50568404 9 8 C4.75153925 7.52794881 2.73180712 5.11122478 0 2 C0 1.34 0 0.68 0 0 Z " fill="#446D71" transform="translate(278,124)"/>
<path d="M0 0 C1.32 0 2.64 0 4 0 C4 1.65 4 3.3 4 5 C2.35 4.67 0.7 4.34 -1 4 C-0.67 2.68 -0.34 1.36 0 0 Z " fill="#D2DFDD" transform="translate(265,111)"/>
<path d="M0 0 C2.475 0.495 2.475 0.495 5 1 C4.67 2.32 4.34 3.64 4 5 C2.68 4.67 1.36 4.34 0 4 C0 2.68 0 1.36 0 0 Z " fill="#CDD7DA" transform="translate(272,189)"/>
<path d="M0 0 C0.66 0 1.32 0 2 0 C3.38938077 1.96147874 4.7260411 3.96166576 6 6 C5.34 6.66 4.68 7.32 4 8 C2 6.25 2 6.25 0 4 C0 2.68 0 1.36 0 0 Z " fill="#5B8388" transform="translate(292,194)"/>
<path d="M0 0 C0.66 0 1.32 0 2 0 C2.625 1.8125 2.625 1.8125 3 4 C2.01 5.485 2.01 5.485 1 7 C-2.125 7.1875 -2.125 7.1875 -5 7 C-4.0409375 6.6596875 -4.0409375 6.6596875 -3.0625 6.3125 C-0.72806339 5.14749104 -0.72806339 5.14749104 -0.25 2.375 C-0.1675 1.59125 -0.085 0.8075 0 0 Z " fill="#37596D" transform="translate(277,188)"/>
<path d="M0 0 C2.31 0 4.62 0 7 0 C7 0.99 7 1.98 7 3 C4.69 3 2.38 3 0 3 C0 2.01 0 1.02 0 0 Z " fill="#1D3953" transform="translate(393,149)"/>
<path d="M0 0 C0.66 0.33 1.32 0.66 2 1 C0.625 3 0.625 3 -1 5 C-1.66 5 -2.32 5 -3 5 C-3 6.98 -3 8.96 -3 11 C-3.33 11 -3.66 11 -4 11 C-4.35233161 5.62694301 -4.35233161 5.62694301 -4 3 C-2 1 -2 1 0 0 Z " fill="#6C768D" transform="translate(223,87)"/>
<path d="M0 0 C1.65 0 3.3 0 5 0 C5 1.32 5 2.64 5 4 C3.35 4 1.7 4 0 4 C0 2.68 0 1.36 0 0 Z " fill="#CDDCDA" transform="translate(319,213)"/>
<path d="M0 0 C0.66 1.32 1.32 2.64 2 4 C-0.475 5.485 -0.475 5.485 -3 7 C-3 3.48283697 -2.17554415 2.62878252 0 0 Z " fill="#C4C9CF" transform="translate(371,208)"/>
<path d="M0 0 C1.32 0 2.64 0 4 0 C4 1.65 4 3.3 4 5 C2.68 5 1.36 5 0 5 C0 3.35 0 1.7 0 0 Z " fill="#DEE9E4" transform="translate(309,181)"/>
<path d="M0 0 C0.66 0.33 1.32 0.66 2 1 C-0.25 3.5625 -0.25 3.5625 -3 6 C-4.32 5.67 -5.64 5.34 -7 5 C-4.69 3.35 -2.38 1.7 0 0 Z " fill="#B4BAC4" transform="translate(337,243)"/>
<path d="M0 0 C1.65 0 3.3 0 5 0 C4.67 1.32 4.34 2.64 4 4 C2.68 4 1.36 4 0 4 C0 2.68 0 1.36 0 0 Z " fill="#D3E6D4" transform="translate(328,108)"/>
<path d="M0 0 C2.125 0.375 2.125 0.375 4 1 C3.01 1.66 2.02 2.32 1 3 C0.27617533 5.05925139 0.27617533 5.05925139 0 7 C-0.66 7 -1.32 7 -2 7 C-2.125 4.625 -2.125 4.625 -2 2 C-1.34 1.34 -0.68 0.68 0 0 Z " fill="#4E857D" transform="translate(308,179)"/>
<path d="M0 0 C2.86724686 0.57344937 3.8614515 0.8614515 6 3 C5.625 5.125 5.625 5.125 5 7 C3.29115995 5.37660195 1.62553283 3.70680947 0 2 C0 1.34 0 0.68 0 0 Z " fill="#438368" transform="translate(351,142)"/>
<path d="M0 0 C0.66 0.99 1.32 1.98 2 3 C0.35 4.65 -1.3 6.3 -3 8 C-3.33 7.01 -3.66 6.02 -4 5 C-2.0625 2.3125 -2.0625 2.3125 0 0 Z " fill="#487C7D" transform="translate(317,221)"/>
</svg>
